<svg width="17" height="17" viewBox="0 0 17 17" fill="none" xmlns="http://www.w3.org/2000/svg">
    <path d="M3.35287 2.00473C3.40539 2.78385 3.5367 3.54546 3.7468 4.27205L2.69631 5.32254C2.33739 4.27205 2.10978 3.16028 2.03099 2.00473H3.35287ZM11.9844 12.5272C12.7285 12.7373 13.4901 12.8686 14.2605 12.9211V14.2255C13.105 14.1467 11.9932 13.9191 10.9339 13.5689L11.9844 12.5272ZM4.19326 0.253906H1.12932C0.647842 0.253906 0.253906 0.647842 0.253906 1.12932C0.253906 9.34944 6.9158 16.0113 15.1359 16.0113C15.6174 16.0113 16.0113 15.6174 16.0113 15.1359V12.0807C16.0113 11.5993 15.6174 11.2053 15.1359 11.2053C14.0504 11.2053 12.9912 11.0302 12.0107 10.7063C11.9232 10.6713 11.8269 10.6626 11.7393 10.6626C11.5117 10.6626 11.2929 10.7501 11.1178 10.9164L9.19187 12.8423C6.71445 11.573 4.68349 9.55079 3.4229 7.07337L5.34881 5.14746C5.59392 4.90235 5.66396 4.56094 5.56766 4.25454C5.24376 3.27408 5.06868 2.22358 5.06868 1.12932C5.06868 0.647842 4.67474 0.253906 4.19326 0.253906Z" fill="#3D4047"/>
</svg>
